HIERARCHY
ROOT SpineBase
{
  OFFSET 0.000000 0.000000 0.000000
  CHANNELS 6 Xposition Yposition Zposition Zrotation Xrotation Yrotation
  JOINT SpineMid
  {
    OFFSET 0.000000 31.637650 0.000000
    CHANNELS 3 Zrotation Xrotation Yrotation
    JOINT SpineShoulder
    {
      OFFSET -0.119073 23.604398 -0.743390
      CHANNELS 3 Zrotation Xrotation Yrotation
      JOINT Neck
      {
        OFFSET -0.095708 7.847855 -0.573919
        CHANNELS 3 Zrotation Xrotation Yrotation
        JOINT Head
        {
          OFFSET 7.891762 8.345848 2.385731
          CHANNELS 3 Zrotation Xrotation Yrotation
          End Site
          {
            OFFSET 0 0 0
          }
        }
      }
      JOINT ShoulderLeft
      {
        OFFSET -8.271467 -3.024793 -12.164621
        CHANNELS 3 Zrotation Xrotation Yrotation
        JOINT ElbowLeft
        {
          OFFSET -2.487463 -22.290348 -8.437493
          CHANNELS 3 Zrotation Xrotation Yrotation
          JOINT WristLeft
          {
            OFFSET 4.097442 -19.506613 -3.998478
            CHANNELS 3 Zrotation Xrotation Yrotation
            JOINT HandLeft
            {
              OFFSET 1.279692 -8.063923 -1.207584
              CHANNELS 3 Zrotation Xrotation Yrotation
              JOINT HandTipLeft
              {
                OFFSET 0.876418 -6.958386 0.341825
                CHANNELS 3 Zrotation Xrotation Yrotation
                End Site
                {
                  OFFSET 0 0 0
                }
              }
              JOINT ThumbLeft
              {
                OFFSET -1.827088 -1.368425 -3.113408
                CHANNELS 3 Zrotation Xrotation Yrotation
                End Site
                {
                  OFFSET 0 0 0
                }
              }
            }
          }
        }
      }
      JOINT ShoulderRight
      {
        OFFSET 28.396950 -10.419421 -8.417915
        CHANNELS 3 Zrotation Xrotation Yrotation
        JOINT ElbowRight
        {
          OFFSET -4.430992 -13.802729 21.370713
          CHANNELS 3 Zrotation Xrotation Yrotation
          JOINT WristRight
          {
            OFFSET -3.376044 -24.888944 8.969447
            CHANNELS 3 Zrotation Xrotation Yrotation
            JOINT HandRight
            {
              OFFSET -5.282343 -7.049002 -7.534699
              CHANNELS 3 Zrotation Xrotation Yrotation
              JOINT HandTipRight
              {
                OFFSET 0.140598 -2.404143 -1.507154
                CHANNELS 3 Zrotation Xrotation Yrotation
                End Site
                {
                  OFFSET 0 0 0
                }
              }
              JOINT ThumbRight
              {
                OFFSET 0.707638 -1.395510 -2.406694
                CHANNELS 3 Zrotation Xrotation Yrotation
                End Site
                {
                  OFFSET 0 0 0
                }
              }
            }
          }
        }
      }
    }
  }
  JOINT HipLeft
  {
    OFFSET -7.469831 2.117979 -6.267468
    CHANNELS 3 Zrotation Xrotation Yrotation
    JOINT KneeLeft
    {
      OFFSET -2.877996 -29.947871 -2.809273
      CHANNELS 3 Zrotation Xrotation Yrotation
      JOINT AnkleLeft
      {
        OFFSET -10.064494 -33.464630 1.346543
        CHANNELS 3 Zrotation Xrotation Yrotation
        JOINT FootLeft
        {
          OFFSET 0.947027 -5.633946 -5.040409
          CHANNELS 3 Zrotation Xrotation Yrotation
          End Site
          {
            OFFSET 0 0 0
          }
        }
      }
    }
  }
  JOINT HipRight
  {
    OFFSET 6.387966 0.726287 -0.623222
    CHANNELS 3 Zrotation Xrotation Yrotation
    JOINT KneeRight
    {
      OFFSET -6.097501 -29.024551 -1.454441
      CHANNELS 3 Zrotation Xrotation Yrotation
      JOINT AnkleRight
      {
        OFFSET -6.535719 -36.384626 7.778001
        CHANNELS 3 Zrotation Xrotation Yrotation
        JOINT FootRight
        {
          OFFSET 0.349934 -4.702813 -8.963080
          CHANNELS 3 Zrotation Xrotation Yrotation
          End Site
          {
            OFFSET 0 0 0
          }
        }
      }
    }
  }
}
MOTION
Frames: 14
Frame Time: 0.033333
65.541358 71.398475 323.270589 -2.693912 4.985833 -25.117636 0.042579 -0.293345 25.160859 -0.192735 -0.004263 -0.104564 -1.941886 -3.943782 0.575745 0.000000 0.000000 0.000000 2.986693 -4.689355 0.282629 3.532646 0.774618 -0.580954 -5.639718 -21.999345 -3.056780 15.545052 30.491001 -1.607584 0.000000 0.000000 0.000000 0.000000 0.000000 0.000000 2.986693 -4.689355 0.282629 -4.243147 20.874564 -3.845738 50.108081 -51.548692 43.215351 -31.537941 68.449338 11.476417 0.000000 0.000000 0.000000 0.000000 0.000000 0.000000 21.891005 19.556173 19.078785 -26.379846 -16.140338 0.369052 2.012344 22.613312 2.544441 0.000000 0.000000 0.000000 -0.876621 -16.552124 26.955222 8.168679 22.810824 -5.868875 11.557094 10.437233 -7.232853 0.000000 0.000000 0.000000
66.596186 71.532617 322.851918 -2.444938 5.135389 -24.911981 -0.095525 -0.327709 24.946389 -0.127320 -0.013068 -0.091726 -3.027677 -3.560338 0.248192 0.000000 0.000000 0.000000 2.810549 -4.858055 0.264644 2.645187 1.262555 -0.304081 -1.707239 -22.550494 -3.191734 7.397568 28.978854 1.327498 0.000000 0.000000 0.000000 0.000000 0.000000 0.000000 2.810549 -4.858055 0.264644 -4.244424 20.874303 -3.845940 50.109492 -51.547892 43.215322 -31.601060 68.443337 11.543050 0.000000 0.000000 0.000000 0.000000 0.000000 0.000000 22.602042 20.007983 18.559047 -25.674940 -15.334163 0.412831 -0.057945 27.742069 3.948745 0.000000 0.000000 0.000000 -1.560260 -16.432864 26.556478 6.663395 19.842731 -5.235423 15.541807 3.405648 -11.981717 0.000000 0.000000 0.000000
67.800027 71.601309 322.412693 -2.149239 5.186988 -24.566538 -0.222824 -0.342241 24.590064 -0.107168 -0.039327 -0.082406 -4.055372 -3.382285 0.181215 0.000000 0.000000 0.000000 1.378262 -5.167363 0.626988 2.776922 1.747846 -0.513861 1.978419 -22.638097 -3.267092 2.816294 26.782924 2.802345 0.000000 0.000000 0.000000 0.000000 0.000000 0.000000 2.614224 -4.922902 0.242705 -4.246804 20.873339 -3.846258 50.111857 -51.546332 43.215350 -31.702264 68.437563 11.649978 0.000000 0.000000 0.000000 0.000000 0.000000 0.000000 23.291889 20.336101 17.901288 -22.682079 -13.942737 0.978265 -4.926320 28.734792 5.397023 0.000000 0.000000 0.000000 -2.721334 -16.626809 25.991910 7.678203 17.808990 -4.994413 13.493062 1.136440 -10.564624 0.000000 0.000000 0.000000
68.555584 71.727098 321.391839 -2.626356 5.861351 -23.659982 0.156492 -0.611489 23.716351 -0.295754 -0.080997 -0.114726 -3.914506 -3.515012 0.180102 0.000000 0.000000 0.000000 1.417160 -5.275161 0.772394 1.843329 1.807185 -0.314744 5.769957 -21.807063 -3.257810 -1.472303 24.805593 4.081092 0.000000 0.000000 0.000000 0.000000 0.000000 0.000000 3.039978 -5.148664 0.295181 -4.251383 20.871614 -3.846885 50.116144 -51.543390 43.215507 -31.884843 68.426040 11.843025 0.000000 0.000000 0.000000 0.000000 0.000000 0.000000 25.849537 19.504373 16.953116 -19.900183 -10.790154 1.245967 -10.825809 30.700374 7.644420 0.000000 0.000000 0.000000 -2.025052 -18.240011 25.318505 6.869443 17.515410 -5.057768 13.644813 -5.981090 -10.284240 0.000000 0.000000 0.000000
69.129969 71.504402 320.665386 -3.305761 5.957778 -22.490319 0.135295 -0.704756 22.553309 -0.513503 -0.160332 -0.175250 -1.895577 -3.151889 -0.172325 0.000000 0.000000 0.000000 1.863444 -5.266078 1.032988 1.881105 2.105855 -0.353713 6.379665 -19.742912 -3.101054 -4.127211 24.316069 4.801293 0.000000 0.000000 0.000000 0.000000 0.000000 0.000000 3.986540 -5.077800 0.405042 -4.258422 20.869141 -3.847872 50.122171 -51.538794 43.215316 -32.154911 68.410869 12.128911 0.000000 0.000000 0.000000 0.000000 0.000000 0.000000 29.418703 20.231958 14.941859 -18.556211 -8.601666 1.188298 -12.592264 26.185871 5.561630 0.000000 0.000000 0.000000 -1.553525 -19.230340 24.390226 6.013402 18.126943 -5.231759 13.897027 -16.309105 -9.759232 0.000000 0.000000 0.000000
69.830931 71.007380 320.154206 -3.965933 5.537317 -20.968267 0.030218 -0.430325 21.036919 -0.369767 -0.044571 -0.180182 -1.461795 -3.411327 0.131395 0.000000 0.000000 0.000000 2.383559 -5.113870 1.072964 1.489825 2.034686 -0.234136 5.565543 -17.654153 -2.967903 -3.800960 23.579871 4.518331 0.000000 0.000000 0.000000 0.000000 0.000000 0.000000 4.486795 -5.058803 0.463142 -4.266844 20.866292 -3.849066 50.129541 -51.533400 43.215402 -32.474083 68.393497 12.466851 0.000000 0.000000 0.000000 0.000000 0.000000 0.000000 33.192297 21.774123 11.989301 -17.345503 -7.085236 1.030808 -12.319315 24.329665 1.957721 0.000000 0.000000 0.000000 -2.065090 -20.207873 23.005233 6.388778 20.072248 -5.720196 13.734311 -29.583384 -8.594382 0.000000 0.000000 0.000000
70.212919 70.244225 319.676180 -4.876377 5.070341 -20.781565 -0.040578 -0.411856 20.837843 -0.760605 -0.274361 -0.282270 -0.033551 -2.990440 0.520860 0.000000 0.000000 0.000000 3.934586 -4.567276 1.188982 1.292926 1.989229 -0.214057 4.549339 -14.356021 -2.562999 -2.751905 20.934368 3.768950 0.000000 0.000000 0.000000 0.000000 0.000000 0.000000 5.852153 -4.386001 0.597076 -4.277544 20.862430 -3.850554 50.138735 -51.526501 43.215512 -32.872939 68.373739 12.889292 0.000000 0.000000 0.000000 0.000000 0.000000 0.000000 37.662712 23.868715 9.875697 -18.115127 -6.087735 0.748894 -9.096245 16.797746 -3.287890 0.000000 0.000000 0.000000 -0.946398 -21.114488 23.277231 6.495445 22.928464 -6.259295 14.194390 -42.150719 -9.499232 0.000000 0.000000 0.000000
70.199484 69.743385 319.514750 -6.134751 4.280287 -21.915807 -0.285369 -0.732192 21.900987 -0.796641 -0.254152 -0.356565 1.189526 -1.755637 0.630541 0.000000 0.000000 0.000000 6.047370 -3.583488 1.209572 0.834266 1.786281 -0.092387 2.921887 -13.756233 -2.463919 0.259509 24.321049 3.345160 0.000000 0.000000 0.000000 0.000000 0.000000 0.000000 7.501834 -3.386558 0.728007 -4.290220 20.857653 -3.852294 50.149519 -51.518266 43.215553 -33.345221 68.348697 13.389528 0.000000 0.000000 0.000000 0.000000 0.000000 0.000000 42.732857 27.265263 8.019497 -19.575238 -5.348754 0.382932 -5.569131 11.424921 -8.009353 0.000000 0.000000 0.000000 2.062418 -19.681662 24.935137 3.639244 24.107888 -5.971373 15.840647 -50.020760 -10.620372 0.000000 0.000000 0.000000
69.722241 69.212580 319.446660 -7.955627 3.249199 -19.445661 -0.372715 -0.669968 19.362538 -0.831599 -0.286035 -0.445284 1.911176 -0.890840 1.262193 0.000000 0.000000 0.000000 8.449987 -2.754453 1.210339 1.105642 1.728458 -0.156545 -0.030062 -12.799754 -2.115313 4.612373 25.202200 2.280655 0.000000 0.000000 0.000000 0.000000 0.000000 0.000000 9.390580 -2.348653 0.850419 -4.303708 20.852249 -3.854107 50.160965 -51.509438 43.215582 -33.842470 68.322605 13.916247 0.000000 0.000000 0.000000 0.000000 0.000000 0.000000 50.234358 28.421525 2.337608 -21.970410 -5.467104 0.056595 1.505743 -6.472563 -14.519355 0.000000 0.000000 0.000000 5.324812 -18.570612 22.983009 -0.087404 26.348873 -5.601911 18.761497 -49.830704 -12.794509 0.000000 0.000000 0.000000
69.504125 69.033803 319.263362 -9.911871 2.084764 -20.691427 -0.447611 -0.678754 20.490389 -0.644239 -0.235315 -0.513468 3.578493 0.759213 1.082268 0.000000 0.000000 0.000000 11.233731 -1.217200 0.927189 1.011726 0.874914 -0.031225 -2.611944 -12.771011 -1.863465 8.857102 26.890779 1.247155 0.000000 0.000000 0.000000 0.000000 0.000000 0.000000 11.233731 -1.217200 0.927189 -4.320052 20.845539 -3.856287 50.174396 -51.498571 43.215081 -34.445623 68.289955 14.555353 0.000000 0.000000 0.000000 0.000000 0.000000 0.000000 55.810857 31.547949 -0.455656 -23.583418 -5.767391 0.010672 1.606236 -9.886450 -15.616106 0.000000 0.000000 0.000000 9.188888 -16.497223 24.483046 -3.171195 27.771253 -5.147171 19.389575 -61.819834 -12.535026 0.000000 0.000000 0.000000
70.009407 68.862692 319.129563 -11.222365 0.868948 -21.304473 -0.510726 -0.594542 20.971515 -0.429574 -0.184814 -0.551047 4.015437 2.167514 1.131528 0.000000 0.000000 0.000000 12.747444 -0.873234 0.858196 1.565496 1.347178 -0.245775 -4.379504 -13.200260 -1.701603 13.334315 27.286910 -0.069507 0.000000 0.000000 0.000000 0.000000 0.000000 0.000000 12.348231 -0.124875 0.917229 -4.336328 20.838936 -3.858469 50.187649 -51.487724 43.214422 -35.045842 68.254394 15.191513 0.000000 0.000000 0.000000 0.000000 0.000000 0.000000 61.305508 34.597886 -4.584963 -27.002828 -8.000293 0.006874 3.245942 -15.318291 -16.740532 0.000000 0.000000 0.000000 11.205013 -14.427630 24.937013 -5.938504 27.848373 -4.603235 20.790581 -67.985414 -9.278453 0.000000 0.000000 0.000000
71.414097 68.905543 318.434632 -12.158556 -0.281977 -23.611880 -0.533535 -0.437153 23.153427 -0.075305 -0.090657 -0.556899 4.760565 4.219130 0.206597 0.000000 0.000000 0.000000 14.359950 -0.058248 0.399423 0.938108 1.074554 -0.016000 -4.025737 -13.286723 -1.611498 15.606852 28.441303 -0.830146 0.000000 0.000000 0.000000 0.000000 0.000000 0.000000 12.887755 0.771988 0.867922 -4.356385 20.830917 -3.861175 50.203690 -51.474289 43.213252 -35.785965 68.206105 15.976228 0.000000 0.000000 0.000000 0.000000 0.000000 0.000000 62.738232 37.318524 -5.270234 -26.632149 -7.780021 0.143098 0.322132 -13.669407 -15.711789 0.000000 0.000000 0.000000 12.774797 -11.364640 26.765621 -9.402361 25.730817 -3.849203 22.554721 -60.397824 -3.425242 0.000000 0.000000 0.000000
73.031868 69.041050 317.510798 -13.008491 -1.245919 -26.596629 -0.333151 -0.407677 25.999698 0.153855 -0.049963 -0.572309 5.143195 5.683265 -0.119871 0.000000 0.000000 0.000000 15.606022 0.740144 -0.008011 0.663236 1.148864 0.136558 -3.253498 -13.744127 -1.602194 17.561229 27.631692 -1.562946 0.000000 0.000000 0.000000 0.000000 0.000000 0.000000 13.308071 1.742955 0.795277 -4.376503 20.822800 -3.863883 50.219605 -51.460725 43.211793 -36.527027 68.149814 16.762103 0.000000 0.000000 0.000000 0.000000 0.000000 0.000000 62.346183 39.944664 -4.248945 -25.237270 -7.270595 0.557343 -6.296294 -4.005465 -12.335667 0.000000 0.000000 0.000000 14.005297 -8.033555 29.106158 -12.660931 22.830124 -3.272460 20.916743 -31.200882 2.391044 0.000000 0.000000 0.000000
74.542500 69.514072 315.619671 -14.341454 -1.325571 -30.368687 0.237698 -0.462123 29.673558 0.353966 0.025324 -0.591426 6.340173 6.218274 -0.410286 0.000000 0.000000 0.000000 17.054609 1.265456 -0.361979 0.079650 0.533026 0.345112 -0.152109 -13.103807 -1.539864 15.316896 24.976863 -0.907277 0.000000 0.000000 0.000000 0.000000 0.000000 0.000000 13.980803 2.078055 0.797899 -4.398137 20.814036 -3.866794 50.236862 -51.446147 43.210282 -37.327639 68.068028 17.611115 0.000000 0.000000 0.000000 0.000000 0.000000 0.000000 61.854273 41.534936 -1.104021 -24.629197 -5.466869 0.731041 -15.801019 7.987399 -5.568286 0.000000 0.000000 0.000000 17.255327 -5.588869 32.445377 -16.552986 20.941390 -2.615839 20.017055 -13.792002 5.178807 0.000000 0.000000 0.000000
